<?xml version="1.0" encoding="UTF-8"?>
<svg version="1.1" xmlns="http://www.w3.org/2000/svg" width="3366" height="3183">
<path d="M0 0 C0.82757812 0.40686035 1.65515625 0.8137207 2.5078125 1.23291016 C28.58823964 14.20409979 52.75224407 30.24488243 75 49 C75.48689301 49.40504761 75.97378601 49.81009521 76.47543335 50.22741699 C85.28470597 57.56247939 93.57211092 65.2817565 101.63452148 73.42871094 C103.45559087 75.26827459 105.28477504 77.09947141 107.11523438 78.9296875 C112.94874751 84.78027327 118.71771754 90.63854155 124 97 C124.71289185 97.85271484 124.71289185 97.85271484 125.44018555 98.72265625 C173.48865041 156.83628128 204.76234298 228.73260777 212 304 C212.0928125 304.87406494 212.185625 305.74812988 212.28125 306.64868164 C213.37462211 318.37802617 213.24385166 330.16790113 213.25 341.9375 C213.25101212 343.67601227 213.25101212 343.67601227 213.25204468 345.449646 C213.1663621 438.1870266 178.49213093 529.84260449 114.9140625 597.8671875 C112.3578682 600.6032313 109.85995807 603.38643419 107.375 606.1875 C101.01211736 613.275268 94.33389449 620.00839759 87.08203125 626.1875 C85.61241352 627.46686703 84.17479322 628.78344239 82.76171875 630.125 C15.90184001 693.34553853 -81.18370131 726.18873784 -174.97167969 725.09765625 C-249.64912212 722.68948332 -322.49660302 701.00392276 -384 658 C-384.58297852 657.59571777 -385.16595703 657.19143555 -385.76660156 656.77490234 C-399.82006566 647.00716407 -412.81215432 636.51256651 -425.19921875 624.69921875 C-426.89470887 623.0993528 -428.61127585 621.52838825 -430.34375 619.96875 C-438.15957903 612.9256691 -445.38412784 605.45635368 -452.46630859 597.67773438 C-453.77365292 596.2476054 -455.09799672 594.83304697 -456.42578125 593.421875 C-463.55165665 585.76188462 -469.78291263 577.40007415 -476 569 C-476.7724707 567.95682617 -476.7724707 567.95682617 -477.56054688 566.89257812 C-485.79000631 555.69754772 -493.09855687 544.05411415 -500 532 C-500.5273877 531.0836377 -501.05477539 530.16727539 -501.59814453 529.22314453 C-532.42056407 475.25843344 -547.68086786 414.87080768 -550 353 C-550.03464355 352.08041504 -550.06928711 351.16083008 -550.10498047 350.21337891 C-550.28528443 344.46493015 -550.21648982 338.74654596 -550 333 C-549.95891113 331.90381348 -549.91782227 330.80762695 -549.87548828 329.67822266 C-547.5588611 274.69348348 -534.9694249 219.62783486 -508.97412109 170.83789062 C-507.91750372 168.84435288 -506.88957429 166.8374309 -505.86328125 164.828125 C-495.28727119 144.27386924 -482.36146436 125.09262912 -468 107 C-467.27296875 106.07832031 -466.5459375 105.15664062 -465.796875 104.20703125 C-460.32735641 97.38980754 -454.46947681 90.99452642 -448.50097656 84.61865234 C-447.05406304 83.05830155 -445.62884747 81.48124003 -444.2109375 79.89453125 C-438.32012433 73.31709133 -432.12931201 67.28184153 -425.54589844 61.40185547 C-423.97809342 59.98013462 -422.44325842 58.52951389 -420.9140625 57.06640625 C-412.77667448 49.31012198 -404.13033678 42.5475172 -395 36 C-394.20078125 35.42427246 -393.4015625 34.84854492 -392.578125 34.25537109 C-381.99721151 26.65855452 -371.31714156 19.44983635 -360 13 C-359.34451172 12.61956543 -358.68902344 12.23913086 -358.01367188 11.84716797 C-316.84824765 -12.02292518 -271.1128694 -28.04014429 -224 -35 C-222.99582031 -35.15098145 -221.99164062 -35.30196289 -220.95703125 -35.45751953 C-146.06927702 -46.13109705 -67.7251778 -33.33654435 0 0 Z M-143 16 C-143 55.6 -143 95.2 -143 136 C-106.7 136 -70.4 136 -33 136 C-47.5499337 104.84712753 -47.5499337 104.84712753 -66 76 C-66.79023976 74.90579718 -67.57933704 73.81076818 -68.3671875 72.71484375 C-72.59956108 66.92278926 -77.08592809 61.49952609 -81.95703125 56.234375 C-83.67953173 54.35049302 -85.28116367 52.42865369 -86.875 50.4375 C-99.90181723 35.20395417 -121.76998221 21.50463786 -141 16 C-141.66 16 -142.32 16 -143 16 Z M-226 32 C-227.05445313 32.73734375 -228.10890625 33.4746875 -229.1953125 34.234375 C-243.50530711 44.71196319 -255.57081789 57.71490485 -266 72 C-266.47888672 72.64517578 -266.95777344 73.29035156 -267.45117188 73.95507812 C-290.30728657 103.00413878 -290.30728657 103.00413878 -303 136 C-266.7 136 -230.4 136 -193 136 C-193 96.4 -193 56.8 -193 16 C-204.1245509 16 -217.24346635 25.75349943 -226 32 Z M-314.4453125 44.2734375 C-315.34934814 44.76328125 -316.25338379 45.253125 -317.18481445 45.7578125 C-318.15507568 46.29148437 -319.12533691 46.82515625 -320.125 47.375 C-321.12039795 47.9215625 -322.1157959 48.468125 -323.14135742 49.03125 C-360.70056564 69.82192926 -402.61893331 98.8866907 -427 135 C-427 135.33 -427 135.66 -427 136 C-403.9 136 -380.8 136 -357 136 C-353.63746128 128.71449944 -350.33524409 121.53236536 -347.3125 114.125 C-337.81796201 91.36640918 -326.58943118 69.67242737 -312.5859375 49.33984375 C-310.9618261 46.9436794 -309.46741475 44.49460507 -308 42 C-310.67144193 42 -312.09554452 42.99867784 -314.4453125 44.2734375 Z M-28 42 C-25.15091562 47.10184878 -22.08770384 51.99619561 -18.875 56.875 C-16.90671964 59.91032142 -14.95076168 62.95339478 -13 66 C-12.37665771 66.96993896 -12.37665771 66.96993896 -11.74072266 67.95947266 C1.14887517 88.24326735 10.58035185 111.01113376 19.2824707 133.34301758 C19.88086233 135.00349349 19.88086233 135.00349349 21 136 C23.17805719 136.09429342 25.3592128 136.11742538 27.53930664 136.11352539 C28.22220261 136.11367142 28.90509857 136.11381744 29.60868835 136.1139679 C31.87587614 136.11326876 34.14298274 136.1054764 36.41015625 136.09765625 C37.97814387 136.09579207 39.54613207 136.09436817 41.11412048 136.09336853 C45.24876503 136.08954334 49.38337466 136.07971306 53.51800537 136.06866455 C57.73400398 136.05845044 61.95000822 136.05387091 66.16601562 136.04882812 C74.44402647 136.03809079 82.7220089 136.02101436 91 136 C89.27675291 133.08349728 87.65978957 130.41292041 85.328125 127.94921875 C84.83248047 127.41997803 84.33683594 126.8907373 83.82617188 126.34545898 C83.30603516 125.79833252 82.78589844 125.25120605 82.25 124.6875 C81.16059959 123.52684709 80.07205251 122.36539264 78.984375 121.203125 C78.46423828 120.64818359 77.94410156 120.09324219 77.40820312 119.52148438 C75.72290999 117.7006198 74.10538062 115.82898806 72.5 113.9375 C65.34490419 105.68027452 57.38754781 97.99232709 49 91 C48.24074219 90.35160156 47.48148438 89.70320313 46.69921875 89.03515625 C38.15825028 81.86800061 29.10959422 75.41835401 20 69 C19.3817334 68.56042969 18.7634668 68.12085938 18.12646484 67.66796875 C-3.71141868 50.83736998 -3.71141868 50.83736998 -28 42 Z M-459 186 C-466.07868819 198.36981448 -466.07868819 198.36981448 -471.9375 211.1875 C-472.35225586 212.20086426 -472.76701172 213.21422852 -473.19433594 214.25830078 C-483.6209288 240.19019518 -490.49186144 266.50744817 -494.875 294.0625 C-494.98477173 294.7458139 -495.09454346 295.42912781 -495.2076416 296.13314819 C-495.51974928 298.09908795 -495.81865722 300.067109 -496.1171875 302.03515625 C-496.28847168 303.1631665 -496.45975586 304.29117676 -496.63623047 305.45336914 C-497.06313049 309.61550109 -497 313.81603226 -497 318 C-461.69 318 -426.38 318 -390 318 C-389.278125 309.811875 -388.55625 301.62375 -387.8125 293.1875 C-384.99451364 262.31370064 -380.96441342 232.01637715 -374.69848633 201.65258789 C-373.70403656 196.4523212 -372.87041003 191.22246019 -372 186 C-400.71 186 -429.42 186 -459 186 Z M-321 186 C-323.99765428 193.99374474 -325.96239434 201.82474542 -327.75 210.125 C-327.92163666 210.91922363 -328.09327332 211.71344727 -328.27011108 212.53173828 C-335.61411071 246.8232088 -342 282.81717952 -342 318 C-292.83 318 -243.66 318 -193 318 C-193 274.44 -193 230.88 -193 186 C-235.24 186 -277.48 186 -321 186 Z M-143 186 C-143 229.56 -143 273.12 -143 318 C-94.16 318 -45.32 318 5 318 C5 304.91987029 4.78199011 292.41987131 3.375 279.5 C3.28796814 278.67626892 3.20093628 277.85253784 3.11126709 277.00384521 C0.27231688 250.3266347 -4.09995794 223.94282847 -11 198 C-11.39952881 196.47270264 -11.39952881 196.47270264 -11.80712891 194.91455078 C-12.07315918 193.91278809 -12.33918945 192.91102539 -12.61328125 191.87890625 C-12.85473877 190.96826416 -13.09619629 190.05762207 -13.3449707 189.11938477 C-13.80817002 187.03623701 -13.80817002 187.03623701 -15 186 C-16.6575762 185.90388581 -18.31926986 185.87812245 -19.97962952 185.87974548 C-21.05576287 185.87836799 -22.13189623 185.87699049 -23.24063969 185.87557125 C-24.43619197 185.87916936 -25.63174425 185.88276747 -26.86352539 185.88647461 C-28.76684584 185.88629381 -28.76684584 185.88629381 -30.70861721 185.88610935 C-34.1520191 185.88588288 -37.59538649 185.89169365 -41.03878021 185.89871979 C-44.26572069 185.90439974 -47.4926596 185.90468209 -50.71960449 185.90539551 C-60.16724093 185.91065027 -69.61487089 185.92461132 -79.0625 185.9375 C-110.7115625 185.9684375 -110.7115625 185.9684375 -143 186 Z M38 186 C38.65299714 191.22397711 39.363864 196.09812314 40.453125 201.20703125 C40.74388801 202.59367978 41.03389315 203.98048738 41.32324219 205.36743164 C41.47450562 206.09028351 41.62576904 206.81313538 41.78161621 207.55789185 C48.28666748 238.87055034 52.39703679 270.46933662 54.26367188 302.40087891 C54.32763153 303.48904655 54.32763153 303.48904655 54.3928833 304.59919739 C54.50889391 306.62097508 54.61841653 308.64312204 54.72753906 310.6652832 C54.92071237 314.14391354 54.92071237 314.14391354 56 318 C91.31 318 126.62 318 163 318 C163 309.76587703 162.2209282 302.26565366 160.9375 294.1875 C160.82740601 293.48847565 160.71731201 292.78945129 160.60388184 292.06924438 C154.67580709 254.85744757 143.05757861 219.10556079 125 186 C96.29 186 67.58 186 38 186 Z M-497 368 C-497 377.46861412 -496.7600951 386.06346768 -495.375 395.3125 C-495.19678711 396.51745117 -495.01857422 397.72240234 -494.83496094 398.96386719 C-490.99305195 423.77700868 -484.03071428 447.7447731 -474.125 470.8125 C-473.58214355 472.0802124 -473.58214355 472.0802124 -473.02832031 473.37353516 C-468.82150229 482.86129054 -463.86094181 491.76421056 -459 501 C-429.96 501 -400.92 501 -371 501 C-374.96 482.685 -374.96 482.685 -379 464 C-380.17069999 457.34536931 -381.29264719 450.74905401 -382.1875 444.0625 C-382.30152161 443.24751038 -382.41554321 442.43252075 -382.53302002 441.59283447 C-385.94098275 417.16630923 -387.85882954 392.56048467 -390 368 C-425.31 368 -460.62 368 -497 368 Z M-340 368 C-338.64420141 396.0197303 -338.64420141 396.0197303 -335.75 423.8125 C-335.64395447 424.60465912 -335.53790894 425.39681824 -335.4286499 426.21298218 C-332.59611563 466.47646181 -332.59611563 466.47646181 -319 501 C-317.3424238 501.09611419 -315.68073014 501.12187755 -314.02037048 501.12025452 C-312.94423713 501.12163201 -311.86810377 501.12300951 -310.75936031 501.12442875 C-309.56380803 501.12083064 -308.36825575 501.11723253 -307.13647461 501.11352539 C-305.23315416 501.11370619 -305.23315416 501.11370619 -303.29138279 501.11389065 C-299.8479809 501.11411712 -296.40461351 501.10830635 -292.96121979 501.10128021 C-289.73427931 501.09560026 -286.5073404 501.09531791 -283.28039551 501.09460449 C-273.83275907 501.08934973 -264.38512911 501.07538868 -254.9375 501.0625 C-233.838125 501.041875 -212.73875 501.02125 -191 501 C-191 457.11 -191 413.22 -191 368 C-240.17 368 -289.34 368 -340 368 Z M56 368 C55.10339067 372.48304666 54.66853422 376.78950715 54.38671875 381.33203125 C54.27498862 383.01786044 54.16265849 384.70364995 54.04980469 386.3894043 C53.99127319 387.27300629 53.9327417 388.15660828 53.87243652 389.06698608 C52.12954958 414.94137946 49.1806016 440.42219958 44.5 465.9375 C44.35647095 466.72079681 44.21294189 467.50409363 44.06506348 468.31112671 C43.64342611 470.59276778 43.21411762 472.87280855 42.78125 475.15234375 C42.6614679 475.7941156 42.54168579 476.43588745 42.41827393 477.09710693 C40.86556452 485.13137518 38.87813771 493.01791475 37 501 C66.04 501 95.08 501 125 501 C132.68465001 486.58663696 132.68465001 486.58663696 139.125 471.75 C139.54040039 470.68918213 139.95580078 469.62836426 140.38378906 468.53540039 C150.92396131 441.31611773 157.56581948 413.84360602 162 385 C162.11778809 384.24074219 162.23557617 383.48148438 162.35693359 382.69921875 C163.06635679 377.6775425 163 373.19648157 163 368 C127.69 368 92.38 368 56 368 Z M-143 370 C-143 413.89 -143 457.78 -143 503 C-100.76 503 -58.52 503 -15 503 C-10.98095506 488.80429665 -10.98095506 488.80429665 -7.68359375 474.48828125 C-7.50152374 473.59860153 -7.31945374 472.70892181 -7.13186646 471.7922821 C-6.5581065 468.96740117 -5.99626963 466.14038166 -5.4375 463.3125 C-5.24268036 462.33498779 -5.04786072 461.35747559 -4.84713745 460.3503418 C-1.46203451 443.29071377 1.16853436 426.29833668 3 409 C3.22483449 407.02469106 3.45007172 405.0494279 3.67578125 403.07421875 C3.8696855 401.27891388 4.06127316 399.48335652 4.25 397.6875 C4.33048584 396.95466797 4.41097168 396.22183594 4.49389648 395.46679688 C5.30347838 386.9345405 5 378.67235899 5 370 C-43.84 370 -92.68 370 -143 370 Z M-427 550 C-414.41708722 570.97152131 -392.68866102 590.77615539 -373 605 C-371.02005781 606.58236344 -369.04091735 608.16573048 -367.0625 609.75 C-349.33235554 623.4763847 -328.99197266 636.92634422 -308 645 C-309.3200811 641.28808878 -310.93995627 638.58233383 -313.375 635.5 C-319.7750959 626.85871529 -324.83478715 617.41248716 -330 608 C-330.50611816 607.08105957 -331.01223633 606.16211914 -331.53369141 605.21533203 C-339.20204238 591.19412126 -345.7183439 576.84828292 -351.7265625 562.04345703 C-353.41815741 558.00062304 -355.22011236 554.00474719 -357 550 C-380.1 550 -403.2 550 -427 550 Z M-303 550 C-296.08219085 566.47682436 -296.08219085 566.47682436 -288.3125 582.5 C-287.81685547 583.44230469 -287.32121094 584.38460937 -286.81054688 585.35546875 C-278.20309271 601.37281824 -267.72286193 616.12695338 -256 630 C-255.33355469 630.79664063 -254.66710938 631.59328125 -253.98046875 632.4140625 C-252.35639326 634.31309434 -250.69284482 636.16229071 -249 638 C-248.48308594 638.59296875 -247.96617187 639.1859375 -247.43359375 639.796875 C-234.25858759 654.06242977 -214.48931093 666.31938453 -196 672 C-195.01 672 -194.02 672 -193 672 C-193 631.74 -193 591.48 -193 550 C-229.3 550 -265.6 550 -303 550 Z M-143 550 C-143 590.26 -143 630.52 -143 672 C-133.23146013 669.36975017 -133.23146013 669.36975017 -124.1875 665.4375 C-123.51444824 665.09452881 -122.84139648 664.75155762 -122.14794922 664.39819336 C-111.80280859 658.96353644 -102.68650627 651.9750482 -94.1640625 644.0078125 C-92.30874922 642.28645685 -90.41279126 640.70342909 -88.4375 639.125 C-83.62408256 635.02009962 -79.88679711 629.959017 -76 625 C-75.20464844 624.00871094 -74.40929688 623.01742187 -73.58984375 621.99609375 C-46.80534154 588.39229433 -46.80534154 588.39229433 -33 550 C-69.3 550 -105.6 550 -143 550 Z M21 550 C17.47059076 557.64705336 14.00417748 565.24542986 10.75 573 C1.55855068 594.59136438 -8.86098528 614.70601547 -22.06591797 634.11401367 C-22.54947754 634.82533447 -23.03303711 635.53665527 -23.53125 636.26953125 C-23.95986328 636.89448486 -24.38847656 637.51943848 -24.83007812 638.16333008 C-26.03380632 640.05307281 -27.03323589 641.9802333 -28 644 C-20.27533939 641.72565198 -13.49818181 638.34367866 -6.4375 634.5 C-4.71104248 633.56341553 -4.71104248 633.56341553 -2.94970703 632.60791016 C6.14210715 627.60683782 14.67211571 622.17328632 23 616 C24.3434922 615.02438447 25.68724909 614.04913337 27.03125 613.07421875 C28.39712137 612.07206565 29.76174129 611.06820429 31.125 610.0625 C31.70975098 609.63308105 32.29450195 609.20366211 32.89697266 608.76123047 C44.41145476 600.11051855 54.96297685 590.37306047 65.09741211 580.16333008 C66.82248477 578.42745269 68.55811991 576.7026491 70.29492188 574.97851562 C82.02388853 563.53483563 82.02388853 563.53483563 91 550 C67.9 550 44.8 550 21 550 Z " fill="#000000" transform="translate(1849,1018)"/>
<path d="M0 0 C990.33 0 1980.66 0 3001 0 C3001 30.36 3001 60.72 3001 92 C2010.67 92 1020.34 92 0 92 C0 61.64 0 31.28 0 0 Z " fill="#000000" transform="translate(182,2908)"/>
<path d="M0 0 C46.2 0 92.4 0 140 0 C145.28 8.58 150.56 17.16 156 26 C159.51733878 31.59256866 163.035719 37.18297431 166.57763672 42.75976562 C176.77715601 58.82409604 186.86095862 74.96029528 196.93652344 91.10253906 C203.74607684 102.01091318 210.56495297 112.91268089 217.44213867 123.77856445 C222.13536416 131.19991801 226.78400195 138.64891626 231.43359375 146.09765625 C235.27149053 152.24300017 239.12520428 158.37786211 243 164.5 C250.69913904 176.66726188 258.31258021 188.88808236 265.93652344 201.10253906 C272.27004008 211.24833937 278.60471132 221.39298665 285 231.5 C292.69898777 243.66735884 300.31257934 255.88808096 307.93652344 268.10253906 C314.27004008 278.24833937 320.60471132 288.39298665 327 298.5 C334.69898777 310.66735884 342.31257934 322.88808096 349.93652344 335.10253906 C356.27004024 345.24833963 362.60474178 355.39296715 369 365.5 C373.60502304 372.77814832 378.18408195 380.07225433 382.75 387.375 C383.35199219 388.33728516 383.95398438 389.29957031 384.57421875 390.29101562 C389.08272168 397.50757994 393.54011299 404.75268361 398 412 C398.33 276.04 398.66 140.08 399 0 C439.26 0 479.52 0 521 0 C521 193.38 521 386.76 521 586 C474.47 586 427.94 586 380 586 C363.07432432 558.91891892 363.07432432 558.91891892 357 549 C351.87017782 540.64327299 346.70675027 532.30900856 341.5 524 C334.88980917 513.45002384 328.35782832 502.85321752 321.83984375 492.24609375 C313.84383772 479.23392262 305.79226442 466.25718605 297.6875 453.3125 C291.0194504 442.66105233 284.42606206 431.96479045 277.84765625 421.2578125 C272.77511806 413.00277774 267.67212979 404.7666926 262.56787109 396.53125 C260.98769303 393.980131 259.40956142 391.4277571 257.83203125 388.875 C252.14290577 379.67123605 246.43009971 370.48300381 240.6875 361.3125 C234.01688174 350.65712868 227.42134246 339.95667265 220.83984375 329.24609375 C212.84383841 316.23392375 204.79235591 303.25712775 196.6875 290.3125 C190.73695048 280.80852355 184.84849535 271.26770915 178.98120117 261.7121582 C174.52055302 254.45379672 170.02380132 247.2191486 165.5 240 C159.57313926 230.5406302 153.70451159 221.04671823 147.86181641 211.53515625 C143.03972601 203.68518653 138.19828411 195.84750457 133.33544922 188.02270508 C129.83403719 182.3793418 126.41796563 176.69660938 123 171 C122.67 307.95 122.34 444.9 122 586 C81.74 586 41.48 586 0 586 C0 392.62 0 199.24 0 0 Z " fill="#000000" transform="translate(219,2103)"/>
<path d="M0 0 C1.15411377 -0.00358521 2.30822754 -0.00717041 3.49731445 -0.01086426 C25.13649712 -0.04701417 46.62515454 1.06539009 68 4.5625 C68.66428009 4.66987488 69.32856018 4.77724976 70.01296997 4.88787842 C103.3126036 10.29875581 135.59668553 19.70347524 166.0625 34.3125 C167.02430176 34.76753906 167.98610352 35.22257813 168.97705078 35.69140625 C182.21746836 42.02781473 194.62315975 49.35855195 206.8125 57.5 C207.43230743 57.91352722 208.05211487 58.32705444 208.69070435 58.75311279 C220.51981722 66.68330374 231.90659684 75.06366828 242.33203125 84.79296875 C244.42244401 86.72189039 246.53663056 88.5802912 248.6953125 90.4296875 C253.56479258 94.67509547 258.12512965 99.22463107 262.6809082 103.80053711 C264.12275221 105.24774385 265.56987116 106.68952026 267.01757812 108.13085938 C272.24475114 113.35355535 277.29807349 118.66313612 282.0625 124.3125 C282.60302002 124.94631592 283.14354004 125.58013184 283.70043945 126.2331543 C311.75381348 159.30568884 333.15359051 196.44080825 352.0625 235.3125 C353.25625244 235.135979 354.45000488 234.95945801 355.67993164 234.77758789 C360.18004903 234.11376646 364.68128165 233.45778011 369.18286133 232.80395508 C371.11773614 232.52185608 373.05231726 232.23773394 374.98657227 231.95141602 C426.41742238 224.34535142 477.53180669 229.14490815 525.0625 251.3125 C525.86848633 251.68600586 526.67447266 252.05951172 527.50488281 252.44433594 C551.71717516 263.79001019 573.90204977 278.6134279 593.0625 297.3125 C593.79291504 298.02245117 594.52333008 298.73240234 595.27587891 299.46386719 C613.65084155 317.39228022 613.65084155 317.39228022 621.0625 327.3125 C621.48402344 327.86292969 621.90554688 328.41335938 622.33984375 328.98046875 C629.27993165 338.04386966 635.46110894 347.36918802 641.0625 357.3125 C641.45791992 358.00230957 641.85333984 358.69211914 642.26074219 359.40283203 C653.69614904 379.49414359 661.10201336 401.0548009 667.0625 423.3125 C671.00965933 437.99447229 671.00965933 437.99447229 681.71191406 448.03173828 C685.94259889 450.33690785 690.36904475 452.14924939 694.8125 454 C722.9250087 466.03601891 748.13782339 481.15634902 770.6015625 502.0390625 C772.79500372 504.06538439 775.03406982 506.00825452 777.3125 507.9375 C780.53875663 510.74662446 783.32320913 513.75850255 786.0859375 517.01953125 C788.03007001 519.27487865 790.03678553 521.46254359 792.06494141 523.64233398 C826.66198434 560.89389654 847.08121932 608.28956804 854.0625 658.3125 C854.2382959 659.55491455 854.4140918 660.7973291 854.59521484 662.07739258 C855.13850578 666.49784792 855.25815468 670.88185682 855.30078125 675.33203125 C855.31062042 676.17975601 855.32045959 677.02748077 855.33059692 677.90089417 C855.50994205 697.39362069 855.16705116 716.17167851 851.0625 735.3125 C850.82644043 736.42625 850.59038086 737.54 850.34716797 738.6875 C839.92047021 786.44459922 819.00351439 831.01644377 790.0625 870.3125 C789.67980296 871.02141514 789.29710592 871.73033028 788.902812 872.46072769 C786.59349551 874.78442515 784.90103265 874.8001675 781.70236427 874.85499835 C780.97182261 874.84723793 780.24128096 874.83947752 779.48860168 874.83148193 C778.71016346 874.83898319 777.93172524 874.84648444 777.12969798 874.854213 C774.51303631 874.87456403 771.89723505 874.86637328 769.28051758 874.85839844 C767.40816893 874.86712945 765.53582776 874.87761357 763.66349792 874.88972473 C758.57286984 874.91766325 753.48248427 874.92098769 748.39179063 874.92000484 C743.07458918 874.92312721 737.75749805 874.94873127 732.44035339 874.97198486 C722.36815369 875.01260031 712.29601882 875.0328986 702.22374982 875.04595876 C690.758302 875.06181005 679.29296481 875.10021774 667.82758105 875.14055204 C644.23923587 875.22302694 620.65096093 875.27409364 597.0625 875.3125 C602.3425 887.5225 607.6225 899.7325 613.0625 912.3125 C612.4025 912.6425 611.7425 912.9725 611.0625 913.3125 C608.71465585 912.49192239 606.48422576 911.60207251 604.20703125 910.61328125 C603.49523712 910.31154999 602.78344299 910.00981873 602.05007935 909.69894409 C599.65519815 908.68161344 597.26521871 907.65323231 594.875 906.625 C593.1709643 905.89876763 591.46661134 905.17327926 589.76196289 904.44848633 C586.10216096 902.89083468 582.44438433 901.32855295 578.78808594 899.76269531 C573.08374444 897.32013511 567.37453261 894.88912936 561.6640625 892.4609375 C559.73038236 891.63860227 557.79670726 890.81625519 555.86303711 889.99389648 C554.89816376 889.58356171 553.93329041 889.17322693 552.93917847 888.75045776 C549.9845588 887.49343062 547.03041477 886.23529217 544.07641602 884.97680664 C529.99905145 878.98017287 515.90998526 873.01167238 501.8125 867.0625 C500.89717499 866.67621429 499.98184998 866.28992859 499.03878784 865.89193726 C486.71610549 860.6922701 474.38977518 855.50126758 462.0625 850.3125 C462.0625 849.6525 462.0625 848.9925 462.0625 848.3125 C463.14289551 847.85738037 464.22329102 847.40226074 465.33642578 846.93334961 C487.12944017 837.75091665 508.90892779 828.53759538 530.6625061 819.26208496 C539.68345542 815.41600969 548.70601781 811.57371887 557.7288208 807.73199463 C559.95394742 806.78452635 562.17900423 805.83689412 564.4039917 804.88909912 C570.78147154 802.17273257 577.16070495 799.46056698 583.54272461 796.75488281 C585.49354016 795.92707864 587.44374991 795.09784516 589.39331055 794.26708984 C592.07178215 793.12601283 594.75238667 791.99010027 597.43359375 790.85546875 C598.21020859 790.52326828 598.98682343 790.19106781 599.78697205 789.84880066 C604.15961007 788.00596983 608.47214894 786.51961054 613.0625 785.3125 C611.52209423 789.02135829 609.9799291 792.72948276 608.4375 796.4375 C608.01082031 797.46488281 607.58414063 798.49226563 607.14453125 799.55078125 C604.75649893 805.28918728 602.3416535 811.01498715 599.88916016 816.72607422 C599.61550125 817.3639537 599.34184235 818.00183319 599.05989075 818.65904236 C598.39433909 820.21030016 597.72845494 821.76141529 597.0625 823.3125 C616.62191605 823.86116865 636.18058148 824.36080872 655.74609375 824.62890625 C656.55146513 824.63996588 657.35683651 824.65102551 658.18661308 824.66242027 C667.43110803 824.78714139 676.67574536 824.88894177 685.9206543 824.97729492 C688.50660798 825.00243545 691.09256014 825.0277196 693.67851067 825.0531826 C695.36905549 825.06973103 697.05960346 825.0859606 698.7501545 825.10186195 C707.72579342 825.18819163 716.690184 825.32459623 725.66020203 825.67701721 C729.41523886 825.82454571 733.17082174 825.93384412 736.92727661 826.03805542 C738.52951371 826.09496783 740.1311698 826.17319656 741.73117065 826.275177 C750.49020897 826.8353302 750.49020897 826.8353302 758.07543945 822.82080078 C760.76467436 819.8698405 762.91266585 816.67123105 765.0625 813.3125 C765.54517334 812.63872314 766.02784668 811.96494629 766.52514648 811.27075195 C769.26248134 807.44467181 771.63922417 803.34379396 774.0625 799.3125 C774.42698242 798.71518066 774.79146484 798.11786133 775.16699219 797.50244141 C794.74546868 765.17981097 806.58770236 727.18851547 806.375 689.3125 C806.37251251 688.59706024 806.37002502 687.88162048 806.36746216 687.14450073 C806.22736184 660.89479497 801.9573859 634.4028909 791.0625 610.3125 C790.68029297 609.44898926 790.29808594 608.58547852 789.90429688 607.69580078 C775.01554623 574.3167129 753.66429783 545.03135022 724.0625 523.3125 C723.02738281 522.54421875 721.99226563 521.7759375 720.92578125 520.984375 C703.83140993 508.71589269 685.23648706 500.01829074 665.375 493.3125 C650.15734351 488.1474418 637.02822917 482.56873674 629.33984375 467.640625 C626.71664284 460.80586301 626.01784494 453.53418328 625.0625 446.3125 C618.24574062 396.24457765 591.9415882 349.35009983 551.5625 318.5 C548.75305305 316.40318093 545.91589729 314.34898627 543.0625 312.3125 C542.1353418 311.64226807 542.1353418 311.64226807 541.18945312 310.95849609 C506.30913047 285.93442097 463.04215616 272.21903941 420.0625 274.3125 C419.32225586 274.3444043 418.58201172 274.37630859 417.81933594 274.40917969 C395.51563902 275.53446323 373.19392254 280.6644271 351.4140625 285.36328125 C350.64980957 285.52789352 349.88555664 285.6925058 349.09814453 285.86210632 C345.4675035 286.64722659 341.84059053 287.44588714 338.21777344 288.26635742 C336.93676758 288.54970947 335.65576172 288.83306152 334.3359375 289.125 C333.21622559 289.37894531 332.09651367 289.63289063 330.94287109 289.89453125 C326.33467431 290.56322365 326.33467431 290.56322365 324.0625 289.3125 C322.80493164 286.64575195 322.80493164 286.64575195 321.72265625 283.05078125 C321.30220166 281.70517847 320.88153775 280.35964108 320.46069336 279.01416016 C320.1353511 277.94189178 320.1353511 277.94189178 319.80343628 276.84796143 C312.42315808 252.66577328 302.6553145 229.26907464 290.0625 207.3125 C289.63791504 206.57177246 289.21333008 205.83104492 288.77587891 205.06787109 C279.7432102 189.48727002 269.42020191 174.8174236 257.5859375 161.23828125 C255.28389844 158.56919881 253.10922413 155.83748083 250.9375 153.0625 C241.30944841 141.25255183 230.08411907 130.64195367 218.0625 121.3125 C216.94801482 120.40018823 215.83620019 119.48460786 214.7265625 118.56640625 C148.25098774 63.83773681 65.43313209 35.96442742 -20.42431641 43.95751953 C-77.68976341 49.74375719 -135.05661373 66.72198023 -182.9375 99.3125 C-183.57574707 99.7465918 -184.21399414 100.18068359 -184.87158203 100.62792969 C-188.96067222 103.4345276 -192.97110097 106.33538661 -196.9375 109.3125 C-197.80084961 109.95952881 -197.80084961 109.95952881 -198.68164062 110.61962891 C-207.59247067 117.34696174 -215.90990682 124.55756599 -223.9375 132.3125 C-224.64487305 132.9926416 -225.35224609 133.6727832 -226.08105469 134.37353516 C-235.29897325 143.27841462 -244.04005421 152.23464719 -251.64111328 162.56738281 C-252.99308317 164.3873227 -254.38066906 166.1751184 -255.77734375 167.9609375 C-281.84167613 201.54614938 -300.82557077 240.36958097 -314.9375 280.3125 C-315.1568219 280.93302246 -315.3761438 281.55354492 -315.60211182 282.19287109 C-318.43377189 290.21458265 -321.21188868 298.25412648 -323.9375 306.3125 C-331.71114146 305.62708215 -339.19013996 304.07992822 -346.8125 302.4375 C-433.16235631 284.29491574 -520.50431217 297.30629377 -595.32714844 345.58789062 C-606.34568923 352.86762988 -616.87102425 360.76493035 -626.9375 369.3125 C-628.00471955 370.20631311 -629.07245443 371.09951115 -630.140625 371.9921875 C-633.42515184 374.74375157 -636.68626907 377.52171254 -639.9375 380.3125 C-640.81535156 381.06402344 -641.69320312 381.81554687 -642.59765625 382.58984375 C-649.2155477 388.38967571 -655.13234199 394.71946973 -660.9375 401.3125 C-662.24847656 402.79169922 -662.24847656 402.79169922 -663.5859375 404.30078125 C-676.30052679 418.86416965 -687.21657244 434.62587784 -696.9375 451.3125 C-697.67833019 452.55732453 -698.41921337 453.80211754 -699.16015625 455.046875 C-716.27306772 484.20507553 -728.28921932 515.42558397 -735.9375 548.3125 C-736.24042969 549.55 -736.54335938 550.7875 -736.85546875 552.0625 C-738.47798319 559.04672461 -739.56038268 566.09255795 -740.5625 573.1875 C-740.74752075 574.47926147 -740.74752075 574.47926147 -740.9362793 575.79711914 C-742.77035022 589.48347676 -743.17614083 603.27015693 -743.1875 617.0625 C-743.18817474 617.81440613 -743.18884949 618.56631226 -743.18954468 619.34100342 C-743.08773433 691.69485484 -716.11844271 761.411152 -671.1171875 817.5546875 C-668.9375 820.3125 -668.9375 820.3125 -666.9375 823.3125 C-664.86656542 823.76868582 -664.86656542 823.76868582 -662.42786217 823.69726086 C-661.47291308 823.7067174 -660.51796399 823.71617394 -659.53407705 823.72591704 C-658.47767385 823.72106947 -657.42127064 823.71622189 -656.33285522 823.71122742 C-655.21633658 823.71787424 -654.09981794 823.72452107 -652.94946539 823.73136932 C-649.18285349 823.75012231 -645.41655581 823.74738574 -641.64990234 823.74487305 C-638.95997247 823.75388271 -636.2700715 823.7640759 -633.58015442 823.77575684 C-627.77594789 823.79858922 -621.97180155 823.8104359 -616.16755295 823.81488609 C-607.77553245 823.82133614 -599.38362099 823.84425321 -590.99164434 823.87122939 C-577.37725737 823.91454411 -563.76287498 823.94448406 -550.1484375 823.96606445 C-536.92087553 823.98706013 -523.69335105 824.01432286 -510.46582031 824.05004883 C-509.65089597 824.05224765 -508.83597162 824.05444648 -507.9963526 824.05671193 C-503.90824213 824.06778123 -499.82013201 824.07897411 -495.73202205 824.09022844 C-461.80054443 824.18347985 -427.86905535 824.25422517 -393.9375 824.3125 C-393.9375 840.8125 -393.9375 857.3125 -393.9375 874.3125 C-431.74756898 874.58382623 -469.55738183 874.79864101 -507.36822858 874.92528395 C-511.83297108 874.94029228 -516.29771161 874.95582416 -520.76245117 874.97167969 C-521.65129358 874.97482741 -522.54013599 874.97797514 -523.45591301 874.98121825 C-537.84462659 875.03342242 -552.23276435 875.12802983 -566.62113642 875.23833355 C-581.38701598 875.35058649 -596.15259417 875.41721229 -610.91888291 875.44156194 C-620.02952919 875.45802122 -629.13854797 875.50998326 -638.24869318 875.6074976 C-644.49750433 875.67097369 -650.7454753 875.69009237 -656.99458539 875.67451653 C-660.59976545 875.6668351 -664.20210452 875.67852622 -667.80677795 875.7429657 C-690.57145865 876.13009806 -690.57145865 876.13009806 -695.55610847 871.7221756 C-698.00500224 868.88075342 -699.46095055 865.75451308 -700.9375 862.3125 C-702.06190005 860.64882268 -703.21752709 859.00518696 -704.421875 857.3984375 C-705.51226303 855.82940651 -706.60078025 854.25907389 -707.6875 852.6875 C-711.74489188 846.84600673 -715.84274857 841.04294362 -720.0456543 835.30517578 C-725.9894916 827.18620337 -731.54773518 818.91676423 -736.7409668 810.29760742 C-737.59250778 808.88485907 -738.45155597 807.47662405 -739.31567383 806.0715332 C-750.11339624 788.37907259 -759.29815415 769.5684772 -766.9375 750.3125 C-767.2473584 749.54099609 -767.5572168 748.76949219 -767.87646484 747.97460938 C-786.99580817 699.93687728 -794.44071023 646.34815703 -791.125 594.875 C-791.0808194 594.18107147 -791.03663879 593.48714294 -790.99111938 592.77218628 C-787.64824082 541.16294944 -774.33132369 490.07678468 -749.9375 444.3125 C-749.5775293 443.62591309 -749.21755859 442.93932617 -748.84667969 442.23193359 C-728.96139989 404.45332163 -700.54941835 367.87621151 -667.96484375 340.06640625 C-666.55908423 338.85024821 -665.17755267 337.60573499 -663.81640625 336.33984375 C-646.49195688 320.24242115 -626.42164262 307.02916575 -605.9375 295.3125 C-605.13892578 294.85375488 -604.34035156 294.39500977 -603.51757812 293.92236328 C-529.47113066 251.67577277 -442.65931441 239.37916101 -358.9375 252.3125 C-358.82752686 251.60883301 -358.71755371 250.90516602 -358.60424805 250.18017578 C-357.86163331 246.98619825 -356.69810953 244.3813187 -355.26953125 241.4296875 C-354.71322021 240.27597656 -354.15690918 239.12226562 -353.58374023 237.93359375 C-352.97308522 236.68460635 -352.36182255 235.43591589 -351.75 234.1875 C-351.28389816 233.23109619 -351.28389816 233.23109619 -350.80838013 232.25537109 C-348.53804241 227.59779264 -346.24484624 222.95184672 -343.9375 218.3125 C-343.63251587 217.69910767 -343.32753174 217.08571533 -343.01330566 216.45373535 C-329.21143441 188.75441981 -313.19682656 162.56992169 -293.9375 138.3125 C-293.27492188 137.4565625 -292.61234375 136.600625 -291.9296875 135.71875 C-287.43777871 129.97201648 -282.6114728 124.57996868 -277.6484375 119.2421875 C-275.26927702 116.67104865 -272.94191748 114.06448822 -270.625 111.4375 C-262.88220594 102.81737496 -254.68480589 94.39940225 -245.8203125 86.92578125 C-244.47199019 85.77047604 -243.15752111 84.5751992 -241.8671875 83.35546875 C-220.67098104 63.41666437 -194.17993682 47.88336418 -168.05224609 35.33056641 C-166.6377792 34.64962356 -165.22663509 33.96173674 -163.81884766 33.26708984 C-138.2941183 20.73114035 -110.7103154 12.98083318 -82.9375 7.3125 C-81.94169922 7.10544434 -80.94589844 6.89838867 -79.91992188 6.68505859 C-73.28778264 5.33242126 -66.64176546 4.24048548 -59.9375 3.3125 C-58.87756836 3.16296875 -57.81763672 3.0134375 -56.72558594 2.859375 C-37.8411605 0.33492285 -19.02896367 0.0237173 0 0 Z " fill="#000000" transform="translate(1650.9375,511.6875)"/>
<path d="M0 0 C40.26 0 80.52 0 122 0 C122.0093457 11.43575684 122.01869141 22.87151367 122.02832031 34.65380859 C122.06109003 71.32454648 122.11341866 107.99523343 122.17792095 144.66592868 C122.18793734 150.37054725 122.19778165 156.07516611 122.20751953 161.77978516 C122.2094609 162.91537993 122.21140228 164.0509747 122.21340248 165.22098143 C122.24434796 183.56188245 122.26138226 201.90277098 122.27319422 220.24369316 C122.28564452 239.09020093 122.31323292 257.93664361 122.35461307 276.78311026 C122.37963788 288.3943105 122.39312537 300.00540268 122.39142957 311.61663027 C122.39139961 319.59974567 122.40619202 327.58275172 122.43216428 335.56582443 C122.44668284 340.15836819 122.45512453 344.75068779 122.44580269 349.34325027 C122.40265085 373.33464993 122.4237297 397.80762402 130.6875 420.6875 C131.02998779 421.66823486 131.37247559 422.64896973 131.7253418 423.65942383 C134.81088944 432.13717709 138.65802242 439.73319763 144 447 C144.41620605 447.56750977 144.83241211 448.13501953 145.26123047 448.71972656 C160.33676918 468.77127109 181.9569978 479.50892989 206.51269531 483.39794922 C236.25842903 487.4970424 269.53776698 484.49142184 294.44873047 466.22802734 C297.04169317 464.23175574 299.52500048 462.14169013 302 460 C302.67289063 459.42765625 303.34578125 458.8553125 304.0390625 458.265625 C323.57943608 440.24208407 330.35551284 413.25647339 334 388 C334.17001494 386.94001549 334.34002989 385.88003098 334.5151968 384.78792572 C335.33806306 378.09730858 335.15408291 371.341712 335.15821838 364.61169434 C335.16278856 363.03736449 335.16778925 361.46303584 335.17318195 359.88870859 C335.18672052 355.57418797 335.19416897 351.2596752 335.20060861 346.94513893 C335.20863142 342.28810333 335.2223227 337.63108395 335.23532104 332.97406006 C335.25705714 324.90928151 335.27521209 316.8445013 335.29092598 308.77970886 C335.31365074 297.1194116 335.34178995 285.45913233 335.37124526 273.79885036 C335.41888923 254.88023111 335.46216206 235.96160449 335.50268555 217.04296875 C335.54205674 198.66666084 335.58348685 180.29035946 335.62768555 161.9140625 C335.63177196 160.2146277 335.63177196 160.2146277 335.63594092 158.48086089 C335.64962066 152.79707881 335.66334088 147.11329682 335.67708123 141.42951488 C335.79099581 94.2863561 335.89701089 47.14318417 336 0 C376.26 0 416.52 0 458 0 C458.06622482 50.93129903 458.12158323 101.86255721 458.15319599 152.79388702 C458.15694779 158.81653022 458.16083079 164.83917334 458.16479492 170.86181641 C458.16558185 172.06073871 458.16636878 173.25966101 458.16717956 174.49491429 C458.18020813 193.86859457 458.20384783 213.24224796 458.23145839 232.61591232 C458.25958369 252.51780493 458.27619128 272.41968352 458.28226548 292.32159519 C458.28636719 304.58691911 458.29928839 316.85216697 458.3237494 329.11746746 C458.33969469 337.54578423 458.34438061 345.97406208 458.34050413 354.4023928 C458.33859617 359.25390645 458.34137184 364.10528787 458.35761642 368.95677757 C458.41985891 388.52144232 458.25590735 407.64310592 455 427 C454.71734478 428.75890463 454.43507015 430.51787046 454.1532011 432.27690125 C448.51938655 467.10877241 432.72951528 501.66471849 408 527 C407.38415039 527.65081543 406.76830078 528.30163086 406.13378906 528.97216797 C391.47797884 544.44446738 375.90036782 556.22190508 357 566 C356.22736816 566.40460449 355.45473633 566.80920898 354.65869141 567.22607422 C327.65606128 581.21409273 298.10355898 588.56828116 268 592 C267.09121094 592.10441406 266.18242188 592.20882812 265.24609375 592.31640625 C199.12838182 599.58107835 124.49119236 589.57651003 70.91992188 547.36083984 C66.47597873 543.72206734 62.20550737 539.91040646 58 536 C57.08734375 535.15824219 56.1746875 534.31648438 55.234375 533.44921875 C48.4048506 526.88815049 42.60010326 519.61264037 37 512 C36.5771875 511.42685059 36.154375 510.85370117 35.71875 510.26318359 C18.13066897 486.05896114 8.71644554 458.11020614 3 429 C2.77550078 427.85871033 2.77550078 427.85871033 2.54646623 426.69436431 C-0.94752456 407.96496793 -0.41092814 389.00518261 -0.34819686 370.03755951 C-0.33509811 365.05903207 -0.33963562 360.08051434 -0.34190369 355.10197449 C-0.34346778 346.5010203 -0.33414968 337.90013501 -0.31719017 329.29919815 C-0.29268648 316.86408672 -0.28498334 304.4290082 -0.2812262 291.99387525 C-0.27467944 271.8129553 -0.25476674 251.63207197 -0.22631836 231.45117188 C-0.19873163 211.86100445 -0.1775207 192.27084702 -0.16479492 172.68066406 C-0.16400675 171.47073678 -0.16321858 170.2608095 -0.16240653 169.01421775 C-0.15849108 162.94365477 -0.15470004 156.87309172 -0.15097082 150.80252862 C-0.11993026 100.53498654 -0.06465723 50.26751229 0 0 Z " fill="#000000" transform="translate(879,2103)"/>
<path d="M0 0 C69.63 0 139.26 0 211 0 C215.95 8.58 220.9 17.16 226 26 C230.66155669 34.00302654 235.32642993 42.00399926 240 50 C247.83657983 63.40758718 255.64278608 76.83159279 263.39428711 90.28857422 C267.57327594 97.53921986 271.7773134 104.77472586 276 112 C281.49134121 121.3960195 286.93861554 130.8167374 292.37036133 140.24731445 C297.36139811 148.90709922 302.38858094 157.54538898 307.43359375 166.17382812 C308.49159191 167.9837607 309.54576014 169.79594016 310.59521484 171.61083984 C311.47469475 173.10659764 312.37789005 174.58893596 313.31494141 176.04931641 C316.05672989 180.40405955 316.05672989 180.40405955 315.7746582 183.3671875 C314.90825509 186.31181124 313.70422717 188.61545117 312.1484375 191.26171875 C311.5512793 192.28628174 310.95412109 193.31084473 310.33886719 194.36645508 C309.36675293 196.01037231 309.36675293 196.01037231 308.375 197.6875 C307.36124812 199.42193149 306.34750802 201.15637001 305.33447266 202.89122009 C304.27613713 204.70179996 303.21483603 206.5106191 302.15332031 208.31933594 C298.65030608 214.29665423 295.20464205 220.30715075 291.75 226.3125 C290.51625131 228.4547879 289.2819196 230.59674019 288.046875 232.73828125 C287.52963867 233.63587158 287.01240234 234.53346191 286.47949219 235.45825195 C285.74714355 236.71641724 285.74714355 236.71641724 285 238 C284.2251123 239.40028442 284.2251123 239.40028442 283.43457031 240.82885742 C282.96116211 241.54533447 282.48775391 242.26181152 282 243 C281.34 243 280.68 243 280 243 C279.6189209 242.33806641 279.2378418 241.67613281 278.84521484 240.99414062 C271.92595618 228.97898337 264.99622824 216.9705646 258 205 C252.50052933 195.5901056 247.045508 186.15529431 241.60546875 176.7109375 C237.42650872 169.4604851 233.22259494 162.22511731 229 155 C224.1389704 146.68248208 219.30858897 138.34794347 214.5 130 C207.96712945 118.66039991 201.38545988 107.35001087 194.78222656 96.05126953 C192.89205366 92.81518994 191.00432676 89.5776933 189.1171875 86.33984375 C188.16211304 84.70136475 188.16211304 84.70136475 187.18774414 83.02978516 C185.96800016 80.93711673 184.74842713 78.84434865 183.52905273 76.75146484 C182.97934814 75.80867676 182.42964355 74.86588867 181.86328125 73.89453125 C181.38157471 73.06800049 180.89986816 72.24146973 180.40356445 71.38989258 C179.40183751 69.68422114 178.37094422 67.99554143 177.32104492 66.3190918 C176 64 176 64 176 62 C153.23 62 130.46 62 107 62 C118.23262164 81.26024923 118.23262164 81.26024923 129.5 100.5 C136.4530196 112.35219768 143.38405359 124.2170748 150.30273438 136.08935547 C152.01784848 139.03060839 153.73517294 141.97056016 155.453125 144.91015625 C162.13633321 156.34899472 168.78168361 167.80877409 175.39428711 179.28857422 C179.57327623 186.53922037 183.77738823 193.77468179 188 201 C196.02281678 214.73046817 203.95858328 228.51078086 211.89550781 242.29101562 C218.56956312 253.87681766 225.25464084 265.45553353 232 277 C238.74105315 288.53709687 245.42166894 300.10851729 252.09130859 311.68701172 C254.67068059 316.16412581 257.2519834 320.64012429 259.83398438 325.11572266 C261.09760859 327.30645546 262.36064277 329.49752873 263.62304688 331.68896484 C266.52859719 336.73035765 269.44347978 341.76565883 272.38671875 346.78515625 C272.90459961 347.67082275 273.42248047 348.55648926 273.95605469 349.46899414 C274.91788708 351.11225658 275.88318523 352.75349716 276.85253906 354.39233398 C280 359.77681826 280 359.77681826 280 362 C280.66 362 281.32 362 282 362 C282.30357422 360.84757812 282.30357422 360.84757812 282.61328125 359.671875 C284.56255854 354.51040836 287.36607698 349.97907448 290.1875 345.25 C291.46419778 343.08632451 292.74021671 340.92224834 294.015625 338.7578125 C294.67498047 337.64180664 295.33433594 336.52580078 296.01367188 335.37597656 C299.18925356 329.9787367 302.3137656 324.55236 305.4375 319.125 C306.69658348 316.94008624 307.95569823 314.75519051 309.21484375 312.5703125 C309.83987793 311.48524414 310.46491211 310.40017578 311.10888672 309.28222656 C314.23680148 303.85340058 317.36858448 298.42680719 320.5 293 C321.75001879 290.83334417 323.00001878 288.6666775 324.25 286.5 C346.75 247.5 346.75 247.5 348.62475586 244.25048828 C349.8756448 242.08223736 351.12645852 239.91394303 352.37719727 237.74560547 C355.48798335 232.35282085 358.60004238 226.96077907 361.71484375 221.5703125 C368.53502637 209.76370516 375.3232326 197.93973 382.07736206 186.09527588 C387.23335445 177.05670572 392.45320673 168.05722862 397.71118164 159.07763672 C402.19189393 151.41397748 406.60515756 143.71305362 411 136 C415.95378823 127.30598314 420.94378369 118.63502771 426 110 C431.0318979 101.4048271 436.00389124 92.77687778 440.9375 84.125 C447.95856802 71.81284227 455.02769256 59.5291162 462.11914062 47.25732422 C464.05578247 43.90339437 465.98924573 40.5476497 467.921875 37.19140625 C473.54674331 27.42485084 479.17330475 17.65947328 484.875 7.9375 C485.28596924 7.23488037 485.69693848 6.53226074 486.12036133 5.80834961 C488.87952283 1.12047717 488.87952283 1.12047717 490 0 C492.70592245 -0.09785121 495.38631176 -0.1299368 498.09266663 -0.12025452 C498.95106705 -0.12110894 499.80946747 -0.12196337 500.69388002 -0.12284368 C503.5928971 -0.12450112 506.49185732 -0.11897282 509.39086914 -0.11352539 C511.45995584 -0.11324355 513.52904263 -0.11340119 515.59812927 -0.1139679 C521.23426263 -0.11425599 526.87037491 -0.10835733 532.50650334 -0.10139394 C538.38954262 -0.09516239 544.27258232 -0.09455676 550.15562439 -0.09336853 C561.30454228 -0.09025462 572.45345042 -0.08204044 583.602364 -0.07201904 C596.29138268 -0.06085974 608.98040182 -0.05534792 621.66942418 -0.05032361 C647.77962153 -0.03985787 673.88981022 -0.02225729 700 0 C698.52471151 3.7730523 696.84544317 7.25351412 694.875 10.796875 C694.25625 11.9113501 693.6375 13.0258252 693 14.17407227 C692.33357513 15.36618338 691.666903 16.5581563 691 17.75 C690.66097656 18.3580246 690.32195313 18.96604919 689.97265625 19.59249878 C685.29885674 27.97461097 680.53524131 36.29627624 675.6328125 44.546875 C672.3327303 50.10788646 669.10522142 55.71071312 665.875 61.3125 C665.24021729 62.41327881 664.60543457 63.51405762 663.95141602 64.64819336 C658.91955147 73.38437472 653.92064067 82.13913594 648.92703247 90.8972168 C643.70257051 100.05744958 638.4076829 109.17462968 633.07788086 118.27392578 C629.15665823 124.98182393 625.30877307 131.72769475 621.5 138.5 C617.13020919 146.26983997 612.69289089 153.99549293 608.1875 161.6875 C603.11671203 170.3467368 598.09813661 179.03437862 593.125 187.75 C592.79239166 188.33280731 592.45978333 188.91561462 592.11709595 189.51608276 C589.74316765 193.67649804 587.37133723 197.83810748 585 202 C582.29310621 206.75082197 579.585215 211.50107177 576.875 216.25 C576.37693344 217.12288162 576.37693344 217.12288162 575.86880493 218.01339722 C570.66223464 227.13412897 565.38551973 236.21232052 560.07763672 245.27441406 C555.60420501 252.92677261 551.23521805 260.63448386 546.89160156 268.36108398 C543.01653397 275.23973921 539.05764657 282.06549462 535.0625 288.875 C530.27890421 297.03150813 525.59886773 305.2379649 521 313.5 C515.90242779 322.6557647 510.68915292 331.73444926 505.38842773 340.77392578 C500.89448663 348.44486563 496.46527921 356.15150302 492.0625 363.875 C486.89945523 372.93089546 481.71634332 381.9746472 476.5 391 C471.307595 399.98540936 466.14333816 408.98645334 461 418 C453.98958882 430.28427709 446.93147632 442.540572 439.85449219 454.78662109 C437.9954586 458.00786913 436.14153837 461.23200815 434.2890625 464.45703125 C427.28374965 476.64441929 420.19396554 488.77609333 413.00268555 500.85473633 C409.58597819 506.60305062 406.19745094 512.3653446 402.8671875 518.1640625 C402.5298761 518.75117004 402.1925647 519.33827759 401.84503174 519.94317627 C400.24050089 522.73851298 398.64084735 525.53651828 397.046875 528.33789062 C396.47195313 529.34271484 395.89703125 530.34753906 395.3046875 531.3828125 C394.80952637 532.25309082 394.31436523 533.12336914 393.80419922 534.02001953 C393.20881348 535.00341309 392.61342773 535.98680664 392 537 C391.67830841 537.76612106 391.35661682 538.53224213 391.025177 539.32157898 C389.61570083 542.17019915 388.43978726 543.94261241 386 546 C380.63530887 547.28008161 375.35163941 547.0491744 369.8828125 546.87890625 C368.29958726 546.86210601 366.71631501 546.8493015 365.13302612 546.84031677 C360.97905773 546.80606055 356.8279521 546.71775944 352.67510986 546.61798096 C348.43223806 546.52567176 344.18890044 546.48475808 339.9453125 546.43945312 C331.62889898 546.34312196 323.31480622 546.18966142 315 546 C316.26232746 543.62094832 317.52603542 541.24264702 318.79052734 538.86474609 C319.32074745 537.86494972 319.32074745 537.86494972 319.86167908 536.84495544 C322.96490366 531.01360662 326.25752353 525.30761654 329.625 519.625 C334.51864627 511.30474211 339.30783757 502.93547413 344 494.5 C349.09727478 485.34407342 354.31085105 476.26554397 359.61157227 467.22607422 C364.10551337 459.55513437 368.53472079 451.84849698 372.9375 444.125 C378.10054477 435.06910454 383.28365668 426.0253528 388.5 417 C393.692405 408.01459064 398.85666184 399.01354666 404 390 C411.00941327 377.71747153 418.06572494 365.46242078 425.14111328 353.21777344 C428.26324603 347.81329359 431.38145881 342.40655282 434.5 337 C438.23636915 330.52233115 441.97348347 324.04510017 445.71484375 317.5703125 C452.50998878 305.80728833 459.27728372 294.02888953 466.00997925 282.2300415 C471.42889381 272.73444767 476.88238875 263.25921566 482.35327148 253.79345703 C486.60759005 246.42748802 490.83358054 239.04572029 495.046875 231.65625 C500.87917992 221.42728445 506.76435825 211.23139236 512.71557617 201.07104492 C516.81443507 194.06219868 520.85066323 187.01904596 524.86550903 179.96185303 C531.15363 168.90940498 537.55948822 157.93746908 544.06542969 147.01123047 C549.28377823 138.2377062 554.40494129 129.41143176 559.49414062 120.5625 C565.9457405 109.3452821 572.47246112 98.17326475 579 87 C583.62 79.08 588.24 71.16 593 63 C570.56 63 548.12 63 525 63 C519.72 72.24 514.44 81.48 509 91 C501.9375 103.125 501.9375 103.125 498.4921875 109.015625 C492.91570844 118.55822933 487.40788509 128.14057793 481.89111328 137.71777344 C478.13971976 144.22871257 474.38309006 150.73663194 470.62744141 157.24511719 C467.48817754 162.68585336 464.35018503 168.12731477 461.21484375 173.5703125 C454.59777108 185.0544882 447.95366023 196.52196894 441.26708984 207.96582031 C435.10080946 218.52620282 428.9950405 229.12126766 422.89111328 239.71777344 C419.76319849 245.14659946 416.63136837 250.57316556 413.5 256 C412.5709082 257.61068359 412.5709082 257.61068359 411.62304688 259.25390625 C408.51221667 264.64687516 405.40004851 270.03906364 402.28515625 275.4296875 C395.85300359 286.56411118 389.439961 297.7091573 383.0625 308.875 C382.73148285 309.4545343 382.4004657 310.0340686 382.05941772 310.63116455 C378.68497367 316.53980081 375.31319656 322.44995335 371.94416809 328.36167908 C370.25523789 331.32490498 368.56534878 334.28758312 366.875 337.25 C366.54253265 337.83276703 366.21006531 338.41553406 365.86752319 339.01596069 C361.25230787 347.1020964 356.58393664 355.15558097 351.875 363.1875 C346.45036854 372.44051231 341.18325088 381.77397935 335.96386719 391.14404297 C332.37653576 397.57361365 328.71654677 403.94938593 324.95678711 410.27929688 C321.00094236 416.9561224 317.15588737 423.6955798 313.3125 430.4375 C307.89973496 439.9311192 302.46646179 449.41217108 297 458.875 C291.9769358 467.57031733 286.96679689 476.27240163 282 485 C281.34 485 280.68 485 280 485 C278.47647173 482.35921766 276.952948 479.71843269 275.42944336 477.07763672 C274.08267577 474.74328358 272.73584393 472.40896765 271.38891602 470.07470703 C267.97622702 464.16021511 264.56460594 458.24511559 261.15625 452.328125 C252.81861162 437.85730236 244.42752563 423.41863504 236 409 C233.68667962 405.04214526 231.37404251 401.08389337 229.0625 397.125 C228.48604736 396.13781982 227.90959473 395.15063965 227.31567383 394.13354492 C223.05798345 386.83388651 218.83803948 379.51299394 214.625 372.1875 C209.50713788 363.29102939 204.31342492 354.44353286 199.0625 345.625 C192.88090391 335.23961775 186.84146782 324.78238963 180.86401367 314.27880859 C174.88975209 303.78334836 168.81507116 293.34852473 162.71337891 282.92675781 C154.29638809 268.54903112 145.92145368 254.14795476 137.60571289 239.71142578 C133.42672377 232.46077963 129.22261177 225.22531821 125 218 C118.25286886 206.45277514 111.5666063 194.87097881 104.89111328 183.28222656 C101.76319852 177.85340058 98.63141552 172.42680719 95.5 167 C94.24998121 164.83334417 92.99998122 162.6666775 91.75 160.5 C91.13125 159.4275 90.5125 158.355 89.875 157.25 C84.25 147.5 84.25 147.5 82.37475586 144.24951172 C81.12564482 142.08442929 79.87645871 139.91939018 78.62719727 137.75439453 C75.48797691 132.31384294 72.35009437 126.87252784 69.21484375 121.4296875 C63.16944841 110.93767906 57.10889781 100.45518324 51 90 C44.25564123 78.45724565 37.57241847 66.87980687 30.89990234 55.29541016 C28.99472482 51.99085012 27.08583012 48.68846521 25.17578125 45.38671875 C18.95623903 34.63244184 12.75865546 23.86603942 6.625 13.0625 C6.07118652 12.09094971 5.51737305 11.11939941 4.94677734 10.1184082 C4.44098145 9.22468506 3.93518555 8.33096191 3.4140625 7.41015625 C2.9701416 6.62777588 2.5262207 5.84539551 2.06884766 5.03930664 C1 3 1 3 0 0 Z " fill="#000000" transform="translate(1481,2127)"/>
<path d="M0 0 C0.92538574 0.22526367 1.85077148 0.45052734 2.80419922 0.68261719 C45.92700967 11.39725421 87.00746563 33.27734886 120 63 C120.53012695 63.47373047 121.06025391 63.94746094 121.60644531 64.43554688 C134.59188868 76.07216423 147.36370293 88.14667546 158 102 C158.79535156 103.00160156 159.59070312 104.00320312 160.41015625 105.03515625 C166.74351274 113.05092593 172.52759867 121.37551279 178 130 C178.39654785 130.62261719 178.7930957 131.24523438 179.20166016 131.88671875 C208.54037572 178.48279587 223.26041072 232.64885853 223.1875 287.5 C223.18659363 288.76156418 223.18659363 288.76156418 223.18566895 290.0486145 C223.16083069 302.79715323 222.85359552 315.36648444 221 328 C220.87641113 328.87446777 220.75282227 329.74893555 220.62548828 330.64990234 C211.34198694 394.4416225 181.92194205 452.67328689 136.23876953 498.02197266 C134.49403452 499.75592863 132.76033744 501.50041129 131.02734375 503.24609375 C124.32791475 509.95370479 117.46612749 516.1437855 110 522 C108.93856064 522.86790737 107.87835533 523.73733023 106.8203125 524.609375 C97.12129137 532.3123657 86.62982059 538.67027531 76 545 C75.27876953 545.43231934 74.55753906 545.86463867 73.81445312 546.31005859 C47.80174619 561.80310597 19.3362366 571.58767343 -10.07617188 578.32910156 C-12.40553569 578.86359486 -14.72661547 579.42011927 -17.046875 579.9921875 C-88.03775389 596.15677729 -168.34092094 579.23501086 -229.70629883 541.33789062 C-246.08826002 531.00887754 -261.95281421 519.55788826 -275.43359375 505.5703125 C-277.19480859 503.80470561 -279.04622906 502.18775403 -280.9375 500.5625 C-287.86562034 494.57061213 -294.11572562 488.01081762 -300 481 C-300.46567383 480.44812012 -300.93134766 479.89624023 -301.41113281 479.32763672 C-309.29013716 469.95196561 -316.46145719 460.35365039 -323 450 C-323.68578125 448.92234375 -324.3715625 447.8446875 -325.078125 446.734375 C-327.09366136 443.51269089 -329.05826799 440.26667856 -331 437 C-331.35416992 436.40670898 -331.70833984 435.81341797 -332.07324219 435.20214844 C-352.59112224 400.59520335 -364.13141063 361.79587717 -369 322 C-369.103125 321.19844482 -369.20625 320.39688965 -369.3125 319.57104492 C-370.41903494 309.57765125 -370.24394612 299.47872581 -370.25 289.4375 C-370.25101212 287.93092834 -370.25101212 287.93092834 -370.25204468 286.3939209 C-370.23533816 270.72351602 -369.65095698 255.47783151 -367 240 C-366.83371094 238.98744141 -366.66742187 237.97488281 -366.49609375 236.93164062 C-360.01445339 198.40188957 -345.47114452 160.67182324 -324 128 C-323.54625 127.30825684 -323.0925 126.61651367 -322.625 125.90380859 C-305.3956296 99.84560953 -283.89171202 74.97759097 -259 56 C-257.98808594 55.17113281 -256.97617188 54.34226562 -255.93359375 53.48828125 C-231.36696943 33.39690182 -202.81385781 18.60585672 -173 8 C-171.49738725 7.44533576 -169.99478265 6.89064944 -168.4921875 6.3359375 C-149.72312685 -0.41329808 -129.77272687 -4.54531329 -110 -7 C-108.78159424 -7.1544458 -108.78159424 -7.1544458 -107.53857422 -7.31201172 C-71.38719843 -11.7068304 -35.26261907 -8.72918641 0 0 Z M-231 112 C-231.73347656 112.62261719 -232.46695313 113.24523438 -233.22265625 113.88671875 C-242.88561701 122.12809085 -251.0669987 131.21712153 -258.71240234 141.31103516 C-259.86981256 142.82923081 -261.05252615 144.32805656 -262.23828125 145.82421875 C-298.90673489 192.81614928 -315.32328846 255.10347748 -308.8125 314.125 C-305.59128611 340.19089247 -299.14655733 366.71060241 -286.96728516 390.13330078 C-285.86364804 392.26313658 -284.79843555 394.41066053 -283.73046875 396.55859375 C-273.17126642 417.50171565 -259.20462224 436.09460797 -243 453 C-242.49742676 453.52980469 -241.99485352 454.05960938 -241.47705078 454.60546875 C-233.57108581 462.90315963 -225.23049711 470.21060414 -216 477 C-214.97519531 477.75796875 -213.95039063 478.5159375 -212.89453125 479.296875 C-179.46275608 503.19487398 -140.82251668 518.35526689 -100 523 C-99.1740332 523.0942627 -98.34806641 523.18852539 -97.49707031 523.28564453 C-68.35846723 526.27874985 -39.26400786 523.34585741 -11 516 C-10.24283691 515.80680176 -9.48567383 515.61360352 -8.70556641 515.41455078 C29.83253152 505.42064153 64.48304126 483.35418774 93 456 C93.82371094 455.21753906 94.64742187 454.43507813 95.49609375 453.62890625 C101.15238701 448.12945994 106.13618004 442.204978 111 436 C111.70769531 435.10925781 112.41539062 434.21851562 113.14453125 433.30078125 C123.77930107 419.56180834 132.67735216 404.7370359 140 389 C140.4942749 387.96721924 140.4942749 387.96721924 140.99853516 386.91357422 C148.62279553 370.96133168 153.97422332 354.4387511 157.8125 337.1875 C158.10483521 335.88389526 158.10483521 335.88389526 158.40307617 334.55395508 C161.59518034 319.36437877 162.37939099 304.28685367 162.3125 288.8125 C162.31034485 287.91136475 162.3081897 287.01022949 162.30596924 286.08178711 C162.25399367 272.51766582 161.80295653 259.3146731 159 246 C158.80132324 245.02820801 158.60264648 244.05641602 158.39794922 243.05517578 C151.97401123 212.36944355 140.76737474 182.96825153 123 157 C122.39357666 156.1028125 122.39357666 156.1028125 121.77490234 155.1875 C110.6734166 138.8542796 97.3996815 122.4392031 82 110 C81.18958252 109.33701904 81.18958252 109.33701904 80.36279297 108.66064453 C6.37631641 48.1763555 -93.56905277 33.92265015 -231 112 Z " fill="#000000" transform="translate(2919,2112)"/>
<path d="M0 0 C60.39 0 120.78 0 183 0 C183 139.92 183 279.84 183 424 C162.54 424 142.08 424 121 424 C121 304.54 121 185.08 121 62 C101.2 62 81.4 62 61 62 C61 201.26 61 340.52 61 484 C101.26 484 141.52 484 183 484 C183 504.46 183 524.92 183 546 C122.61 546 62.22 546 0 546 C0 365.82 0 185.64 0 0 Z " fill="#000000" transform="translate(2258,2127)"/>
<path d="M0 0 C0.83273437 0.62132813 1.66546875 1.24265625 2.5234375 1.8828125 C12.82772192 9.852793 22.79002708 18.86678405 31 29 C31.58394531 29.67289063 32.16789062 30.34578125 32.76953125 31.0390625 C50.08786435 51.56710703 61.37159312 76.15147542 68 102 C68.22445801 102.83418457 68.44891602 103.66836914 68.68017578 104.52783203 C72.05358041 117.49071538 72.38469087 130.43516319 72.4375 143.75 C72.44385468 144.56903809 72.45020935 145.38807617 72.45675659 146.23193359 C72.53172575 161.77566945 70.66996744 176.76717859 66.1875 191.6875 C65.79848511 193.00572754 65.79848511 193.00572754 65.40161133 194.35058594 C59.23014198 214.79905675 49.56630801 232.8024354 37 250 C36.37996094 250.86625 35.75992188 251.7325 35.12109375 252.625 C6.87500012 290.03369671 -36.76594987 312.30522363 -82.4375 319.25 C-129.14343365 324.34182627 -176.03427418 312.12741189 -213.125 283.0625 C-218.23624632 278.8694903 -223.17372524 274.51761765 -228 270 C-228.74056641 269.3184082 -228.74056641 269.3184082 -229.49609375 268.62304688 C-262.13354545 238.38660471 -279.90581911 193.79947663 -282.109375 149.81689453 C-283.55263106 110.55130934 -271.47567303 70.55548515 -248 39 C-247.3709375 38.14277344 -246.741875 37.28554687 -246.09375 36.40234375 C-237.98571221 25.83784536 -228.5115918 15.21945594 -218 7 C-217.45682129 6.57154785 -216.91364258 6.1430957 -216.35400391 5.70166016 C-196.70363123 -9.71110271 -175.95080244 -20.82011739 -152 -28 C-150.50146484 -28.46019531 -150.50146484 -28.46019531 -148.97265625 -28.9296875 C-98.58618648 -42.95404207 -41.55939887 -31.25541568 0 0 Z M-193 66 C-205.85355581 81.70325888 -214.16315347 99.37686844 -219 119 C-219.26554687 120.01707031 -219.53109375 121.03414062 -219.8046875 122.08203125 C-225.77081788 149.99207953 -218.58948071 182.3516444 -203.25634766 206.14013672 C-199.50215853 211.69773733 -195.37770205 216.92323633 -191 222 C-190.35675781 222.74636719 -189.71351563 223.49273438 -189.05078125 224.26171875 C-174.47688977 239.84724695 -154.36069696 250.44582033 -134 256 C-132.76378906 256.3403125 -131.52757813 256.680625 -130.25390625 257.03125 C-99.56831691 264.04509899 -67.26829406 257.63162931 -40.78955078 241.17333984 C-36.19753672 238.16253226 -32.09454231 234.64242333 -28 231 C-27.16082031 230.30390625 -26.32164062 229.6078125 -25.45703125 228.890625 C-2.78584958 209.62890786 9.39441709 180.18291251 11.84326172 151.07861328 C14.24148657 119.27411741 2.96417883 88.89096288 -17.59228516 64.79052734 C-36.12862688 43.83886318 -63.13892085 29.86203958 -91 27 C-130.93239985 24.99080036 -165.40305004 36.28020773 -193 66 Z " fill="#000000" transform="translate(2950,2257)"/>
</svg>
